<?xml version="1.0" standalone="no"?>
<!DOCTYPE svg PUBLIC "-//W3C//DTD SVG 20010904//EN"
 "http://www.w3.org/TR/2001/REC-SVG-20010904/DTD/svg10.dtd">
<svg version="1.0" xmlns="http://www.w3.org/2000/svg"
 width="669.000000pt" height="713.000000pt" viewBox="0 0 669.000000 713.000000"
 preserveAspectRatio="xMidYMid meet">

<g transform="translate(0.000000,713.000000) scale(0.100000,-0.100000)"
fill="#000000" stroke="none">
<path d="M3340 6410 c-30 -5 -75 -14 -100 -20 -25 -6 -70 -14 -100 -20 -167
-28 -279 -78 -487 -218 -86 -58 -236 -219 -279 -300 -82 -154 -92 -178 -110
-256 -10 -45 -20 -88 -22 -96 -7 -27 -8 -205 -1 -215 4 -5 7 -21 7 -35 0 -46
31 -144 73 -230 45 -93 123 -215 144 -227 7 -5 30 -28 50 -53 21 -25 54 -56
74 -69 20 -13 53 -39 74 -58 47 -42 209 -122 325 -162 89 -30 291 -71 350 -71
17 0 32 -5 32 -11 0 -17 -59 -131 -90 -174 -16 -22 -50 -74 -75 -115 -42 -67
-47 -79 -42 -119 4 -35 13 -52 37 -74 29 -26 36 -28 84 -22 102 13 217 72 369
190 132 101 193 170 264 299 38 67 39 68 109 91 107 36 294 129 335 166 20 19
58 49 84 68 26 18 55 48 66 65 10 18 29 38 41 45 28 14 88 105 133 200 106
221 128 380 80 575 -14 60 -44 147 -66 192 -21 46 -39 87 -39 90 0 10 -80 114
-115 150 -16 17 -45 47 -63 67 -47 54 -234 178 -303 202 -20 8 -70 29 -110 49
-41 19 -99 39 -129 45 -30 6 -100 20 -155 32 -112 24 -352 34 -445 19z m500
-215 c130 -36 228 -72 270 -99 19 -13 69 -44 111 -69 44 -27 115 -85 167 -137
79 -79 98 -105 138 -188 26 -53 53 -117 61 -142 20 -67 27 -206 14 -283 -12
-70 -91 -258 -122 -293 -11 -11 -19 -24 -19 -28 0 -15 -155 -161 -203 -190
-26 -17 -47 -33 -47 -37 0 -8 -132 -73 -170 -83 -14 -4 -34 -12 -45 -17 -11
-5 -55 -22 -99 -37 l-78 -27 -39 -85 c-21 -46 -42 -86 -48 -88 -6 -2 -27 -30
-46 -63 -24 -38 -56 -73 -93 -99 -31 -23 -72 -55 -92 -73 -70 -64 -73 -64 -39
-2 88 162 114 241 106 323 -3 30 -7 56 -9 58 -2 1 -51 6 -108 9 -117 6 -246
28 -330 55 -165 54 -215 79 -386 194 -68 45 -234 243 -234 278 0 8 -4 18 -10
24 -5 5 -21 43 -35 84 -22 64 -25 91 -25 209 0 138 6 169 55 276 7 17 20 46
28 66 8 20 31 54 50 75 20 22 61 66 91 99 48 54 87 83 236 181 38 25 144 68
225 90 28 8 66 19 85 26 59 20 166 27 360 23 162 -3 197 -7 280 -30z"/>
<path d="M1365 4710 c-16 -6 -58 -25 -92 -43 -55 -28 -65 -38 -96 -96 l-35
-66 -59 -10 c-121 -23 -176 -64 -222 -165 -39 -86 -21 -249 29 -265 11 -4 28
-17 36 -30 9 -14 40 -33 72 -45 53 -20 71 -21 401 -18 335 3 347 4 387 25 139
75 179 285 76 398 -16 16 -29 43 -31 58 -3 34 -89 187 -111 198 -93 50 -137
62 -229 65 -53 2 -109 -1 -126 -6z m174 -171 c64 -13 97 -50 106 -117 10 -81
13 -86 49 -106 45 -24 61 -65 42 -111 -29 -68 -30 -68 -379 -61 -302 6 -313 7
-329 27 -26 30 -22 70 10 112 37 49 60 57 156 57 l83 0 7 41 c9 57 29 91 72
124 56 42 103 51 183 34z"/>
<path d="M5154 4272 c-53 -18 -114 -52 -153 -86 -28 -25 -71 -111 -71 -143 0
-13 -4 -23 -9 -23 -21 0 -82 -78 -97 -124 -20 -60 -12 -181 16 -236 24 -47 90
-107 149 -134 44 -20 63 -21 382 -24 322 -3 337 -2 392 18 75 28 107 56 142
127 38 73 42 174 10 238 -57 116 -116 162 -236 185 -59 11 -71 19 -100 66 -47
77 -213 155 -323 153 -28 -1 -74 -8 -102 -17z m212 -190 c48 -25 72 -51 112
-123 l32 -56 88 -5 c104 -6 123 -15 147 -64 20 -43 14 -88 -17 -121 l-21 -23
-330 0 -329 0 -29 29 c-23 23 -29 38 -29 72 0 52 36 104 79 114 27 6 29 10 34
66 6 67 28 100 82 126 40 18 130 11 181 -15z"/>
<path d="M40 3422 l0 -90 133 -5 c201 -8 780 -45 887 -57 52 -6 136 -17 185
-25 50 -8 164 -26 255 -40 202 -31 199 -30 580 -106 199 -39 188 -36 385 -99
33 -11 103 -30 155 -44 52 -13 127 -36 165 -51 39 -14 99 -36 135 -47 36 -11
88 -30 115 -43 85 -39 148 -66 210 -89 71 -27 148 -69 153 -84 1 -5 -41 -15
-100 -21 -93 -11 -247 -31 -383 -51 -27 -4 -106 -17 -175 -29 -69 -12 -181
-31 -250 -42 -69 -12 -132 -24 -140 -27 -8 -3 -28 -7 -45 -9 -16 -2 -50 -8
-75 -13 -25 -5 -99 -19 -165 -30 -116 -21 -369 -72 -450 -91 -22 -5 -87 -18
-145 -29 -94 -18 -138 -29 -300 -75 -25 -7 -83 -23 -130 -35 -47 -12 -101 -28
-120 -35 -19 -8 -48 -16 -65 -20 -16 -3 -86 -24 -155 -45 -69 -22 -150 -47
-180 -55 -84 -23 -84 -23 -60 -86 33 -90 40 -96 92 -81 23 7 70 19 103 27 33
7 74 19 90 26 17 6 44 15 60 19 17 4 71 20 120 35 89 26 341 92 485 125 41 10
120 29 175 44 55 14 134 30 175 36 41 6 98 17 125 25 70 19 249 54 565 109 80
14 186 32 235 41 50 9 115 18 145 21 30 3 91 12 134 20 44 8 138 21 209 29 71
9 133 17 136 20 11 6 297 43 391 50 47 3 123 12 170 20 47 7 123 16 170 20 47
3 132 12 190 20 550 74 1292 128 1969 143 l325 7 22 45 c37 76 38 87 9 115
l-25 26 -183 -6 c-516 -16 -781 -28 -962 -40 -316 -23 -517 -43 -529 -55 -5
-5 -51 -10 -101 -10 -49 0 -137 -7 -195 -14 -58 -8 -166 -19 -240 -25 -126
-11 -251 -24 -497 -52 l-102 -12 -39 26 c-21 15 -43 27 -48 27 -6 0 -52 25
-103 55 -51 30 -95 55 -98 55 -2 0 -48 21 -101 46 -135 64 -208 94 -229 94
-10 0 -54 16 -98 36 -97 42 -176 70 -230 80 -22 3 -56 12 -75 20 -93 34 -299
86 -640 164 -141 32 -471 89 -607 105 -21 3 -58 9 -83 15 -25 6 -90 14 -145
19 -55 5 -150 16 -211 25 -61 9 -169 20 -240 26 -71 5 -181 14 -244 19 -63 5
-199 12 -302 16 l-188 6 0 -89z m1310 -1296 c0 -3 -4 -8 -10 -11 -5 -3 -10 -1
-10 4 0 6 5 11 10 11 6 0 10 -2 10 -4z"/>
</g>
</svg>
